<?xml version="1.0" encoding="UTF-8" standalone="no"?>
<!DOCTYPE svg PUBLIC "-//W3C//DTD SVG 1.1//EN"
 "http://www.w3.org/Graphics/SVG/1.1/DTD/svg11.dtd">
<!-- Generated by graphviz version 2.40.1 (20161225.0304)
 -->
<!-- Pages: 1 -->
<svg width="232pt" height="397pt"
 viewBox="0.00 0.00 232.43 397.20" xmlns="http://www.w3.org/2000/svg" xmlns:xlink="http://www.w3.org/1999/xlink">
<g id="graph0" class="graph" transform="scale(1 1) rotate(0) translate(4 393.2)">
<polygon fill="#ffffff" stroke="transparent" points="-4,4 -4,-393.2 228.435,-393.2 228.435,4 -4,4"/>
<!-- inbound -->
<g id="node1" class="node">
<title>inbound</title>
<ellipse fill="none" stroke="#000000" cx="134.6992" cy="-371.2" rx="42.8829" ry="18"/>
<text text-anchor="middle" x="134.6992" y="-367" font-family="Times,serif" font-size="14.00" fill="#000000">inbound</text>
</g>
<!-- trigger_1 -->
<g id="node2" class="node">
<title>trigger_1</title>
<path fill="none" stroke="#000000" d="M73.1571,-280.7C73.1571,-280.7 196.2413,-280.7 196.2413,-280.7 202.2413,-280.7 208.2413,-286.7 208.2413,-292.7 208.2413,-292.7 208.2413,-304.7 208.2413,-304.7 208.2413,-310.7 202.2413,-316.7 196.2413,-316.7 196.2413,-316.7 73.1571,-316.7 73.1571,-316.7 67.1571,-316.7 61.1571,-310.7 61.1571,-304.7 61.1571,-304.7 61.1571,-292.7 61.1571,-292.7 61.1571,-286.7 67.1571,-280.7 73.1571,-280.7"/>
<text text-anchor="middle" x="87.8156" y="-294.5" font-family="Times,serif" font-size="14.00" fill="#000000">trigger</text>
<polyline fill="none" stroke="#000000" points="114.4741,-280.7 114.4741,-316.7 "/>
<text text-anchor="middle" x="161.3577" y="-294.6" font-family="Times,serif" font-size="14.00" fill="#000000">[TCP:flags:S]</text>
</g>
<!-- inbound&#45;&gt;trigger_1 -->
<g id="edge5" class="edge">
<title>inbound&#45;&gt;trigger_1</title>
<path fill="none" stroke="#000000" d="M134.6992,-352.9052C134.6992,-345.032 134.6992,-335.6471 134.6992,-326.9167"/>
<polygon fill="#000000" stroke="#000000" points="138.1993,-326.7378 134.6992,-316.7378 131.1993,-326.7378 138.1993,-326.7378"/>
</g>
<!-- duplicate_2 -->
<g id="node3" class="node">
<title>duplicate_2</title>
<ellipse fill="none" stroke="#000000" cx="134.6992" cy="-226.2" rx="46.3662" ry="18"/>
<text text-anchor="middle" x="134.6992" y="-222" font-family="Times,serif" font-size="14.00" fill="#000000">duplicate</text>
</g>
<!-- trigger_1&#45;&gt;duplicate_2 -->
<g id="edge4" class="edge">
<title>trigger_1&#45;&gt;duplicate_2</title>
<path fill="none" stroke="#000000" d="M134.6992,-280.4052C134.6992,-272.532 134.6992,-263.1471 134.6992,-254.4167"/>
<polygon fill="#000000" stroke="#000000" points="138.1993,-254.2378 134.6992,-244.2378 131.1993,-254.2378 138.1993,-254.2378"/>
</g>
<!-- tamper_3 -->
<g id="node4" class="node">
<title>tamper_3</title>
<polygon fill="none" stroke="#000000" points="0,-72.5 0,-171.7 149.3984,-171.7 149.3984,-72.5 0,-72.5"/>
<text text-anchor="middle" x="27.4355" y="-117.9" font-family="Times,serif" font-size="14.00" fill="#000000">tamper</text>
<polyline fill="none" stroke="#000000" points="54.871,-72.5 54.871,-171.7 "/>
<text text-anchor="middle" x="102.1347" y="-155.1" font-family="Times,serif" font-size="14.00" fill="#000000">proto:TCP</text>
<polyline fill="none" stroke="#000000" points="54.871,-146.9 149.3984,-146.9 "/>
<text text-anchor="middle" x="102.1347" y="-130.3" font-family="Times,serif" font-size="14.00" fill="#000000">field:flags</text>
<polyline fill="none" stroke="#000000" points="54.871,-122.1 149.3984,-122.1 "/>
<text text-anchor="middle" x="102.1347" y="-105.5" font-family="Times,serif" font-size="14.00" fill="#000000">mode:replace</text>
<polyline fill="none" stroke="#000000" points="54.871,-97.3 149.3984,-97.3 "/>
<text text-anchor="middle" x="102.1347" y="-80.7" font-family="Times,serif" font-size="14.00" fill="#000000">newValue:SA</text>
</g>
<!-- duplicate_2&#45;&gt;tamper_3 -->
<g id="edge2" class="edge">
<title>duplicate_2&#45;&gt;tamper_3</title>
<path fill="none" stroke="#000000" d="M124.521,-208.5409C119.9698,-200.6445 114.3169,-190.8367 108.4699,-180.6921"/>
<polygon fill="#000000" stroke="#000000" points="111.3304,-178.6462 103.3044,-171.73 105.2657,-182.1417 111.3304,-178.6462"/>
</g>
<!-- send_6 -->
<g id="node6" class="node">
<title>send_6</title>
<ellipse fill="none" stroke="#000000" cx="195.6992" cy="-122.1" rx="28.9735" ry="18"/>
<text text-anchor="middle" x="195.6992" y="-117.9" font-family="Times,serif" font-size="14.00" fill="#000000">send</text>
</g>
<!-- duplicate_2&#45;&gt;send_6 -->
<g id="edge3" class="edge">
<title>duplicate_2&#45;&gt;send_6</title>
<path fill="none" stroke="#000000" d="M145.047,-208.5409C154.8036,-191.8907 169.54,-166.7422 180.6064,-147.8567"/>
<polygon fill="#000000" stroke="#000000" points="183.6703,-149.5508 185.7063,-139.1534 177.6308,-146.0118 183.6703,-149.5508"/>
</g>
<!-- send_4 -->
<g id="node5" class="node">
<title>send_4</title>
<ellipse fill="none" stroke="#000000" cx="74.6992" cy="-18" rx="28.9735" ry="18"/>
<text text-anchor="middle" x="74.6992" y="-13.8" font-family="Times,serif" font-size="14.00" fill="#000000">send</text>
</g>
<!-- tamper_3&#45;&gt;send_4 -->
<g id="edge1" class="edge">
<title>tamper_3&#45;&gt;send_4</title>
<path fill="none" stroke="#000000" d="M74.6992,-72.489C74.6992,-63.459 74.6992,-54.3308 74.6992,-46.1948"/>
<polygon fill="#000000" stroke="#000000" points="78.1993,-46.1626 74.6992,-36.1626 71.1993,-46.1626 78.1993,-46.1626"/>
</g>
</g>
</svg>
